<?xml version="1.0" standalone="no"?>
<!DOCTYPE svg PUBLIC "-//W3C//DTD SVG 1.1//EN" "http://www.w3.org/Graphics/SVG/1.1/DTD/svg11.dtd" >
<svg xmlns="http://www.w3.org/2000/svg">
<metadata>
Created by FontForge 20120731 at Fri Mar  4 15:38:06 2016
 By Ads
</metadata>
<defs>
<font id="iconfont" horiz-adv-x="1024" >
  <font-face 
    font-family="iconfont"
    font-weight="500"
    font-stretch="normal"
    units-per-em="1024"
    panose-1="2 0 6 3 0 0 0 0 0 0"
    ascent="896"
    descent="-128"
    x-height="792"
    bbox="0 -127 1024 895"
    underline-thickness="50"
    underline-position="-100"
    unicode-range="U+0078-E625"
  />
<missing-glyph horiz-adv-x="374" 
d="M34 0v682h272v-682h-272zM68 34h204v614h-204v-614z" />
    <glyph glyph-name=".notdef" horiz-adv-x="374" 
d="M34 0v682h272v-682h-272zM68 34h204v614h-204v-614z" />
    <glyph glyph-name=".null" horiz-adv-x="0" 
 />
    <glyph glyph-name="nonmarkingreturn" horiz-adv-x="341" 
 />
    <glyph glyph-name="x" unicode="x" horiz-adv-x="1001" 
d="M281 543q-27 -1 -53 -1h-83q-18 0 -36.5 -6t-32.5 -18.5t-23 -32t-9 -45.5v-76h912v41q0 16 -0.5 30t-0.5 18q0 13 -5 29t-17 29.5t-31.5 22.5t-49.5 9h-133v-97h-438v97zM955 310v-52q0 -23 0.5 -52t0.5 -58t-10.5 -47.5t-26 -30t-33 -16t-31.5 -4.5q-14 -1 -29.5 -0.5
t-29.5 0.5h-32l-45 128h-439l-44 -128h-29h-34q-20 0 -45 1q-25 0 -41 9.5t-25.5 23t-13.5 29.5t-4 30v167h911zM163 247q-12 0 -21 -8.5t-9 -21.5t9 -21.5t21 -8.5q13 0 22 8.5t9 21.5t-9 21.5t-22 8.5zM316 123q-8 -26 -14 -48q-5 -19 -10.5 -37t-7.5 -25t-3 -15t1 -14.5
t9.5 -10.5t21.5 -4h37h67h81h80h64h36q23 0 34 12t2 38q-5 13 -9.5 30.5t-9.5 34.5q-5 19 -11 39h-368zM336 498v228q0 11 2.5 23t10 21.5t20.5 15.5t34 6h188q31 0 51.5 -14.5t20.5 -52.5v-227h-327z" />
    <glyph glyph-name="uniE600" unicode="&#xe600;" 
d="M19 -53l939 920l47 -46l-939 -920zM66 867l939 -920l-47 -46l-939 920z" />
    <glyph glyph-name="uniE601" unicode="&#xe601;" 
d="M339 489q-21 0 -35.5 14.5t-14.5 34.5t14.5 34.5t35 14.5t35 -14.5t14.5 -34.5q0 -13 -6.5 -24.5t-18 -18t-24.5 -6.5zM704 489q-13 0 -24.5 6.5t-18 18t-6.5 24.5q0 20 14.5 34.5t34.5 14.5q14 0 25 -6.5t18 -18t7 -24.5q0 -20 -14.5 -34.5t-35.5 -14.5zM916 -118h-808
q-8 0 -15.5 2.5t-14 6t-12 9t-9.5 12t-6 14t-2 15.5l68 703q0 23 17.5 39.5t41.5 16.5h145q4 78 61 132t135.5 54t135 -54t60.5 -132h135q25 0 42 -17t17 -41l68 -699q0 -26 -17 -43.5t-42 -17.5zM517 840q-59 0 -102.5 -40.5t-47.5 -99.5h301q-4 59 -47.5 99.5t-103.5 40.5
zM862 640q0 7 -4 11t-10 4h-134h-393h-145q-6 0 -9.5 -4t-3.5 -9l-68 -703q0 -4 4 -7.5t9 -3.5h808q4 0 7 1.5t4.5 4.5t1.5 7z" />
    <glyph glyph-name="uniE602" unicode="&#xe602;" 
d="M912 92l-496 489l96 95l495 -489zM112 92l-95 95l478 471l95 -94z" />
    <glyph glyph-name="uniE603" unicode="&#xe603;" 
d="M220 -16l489 496l95 -96l-489 -495zM220 784l95 95l471 -478l-94 -95z" />
    <glyph glyph-name="uniE604" unicode="&#xe604;" 
d="M112 676l496 -489l-96 -95l-495 489zM912 676l95 -95l-478 -471l-95 94z" />
    <glyph glyph-name="uniE605" unicode="&#xe605;" 
d="M804 784l-489 -496l-95 96l489 495zM804 -16l-95 -95l-471 478l94 95z" />
    <glyph glyph-name="uniE606" unicode="&#xe606;" 
d="M512 686l503 -604h-1006z" />
    <glyph glyph-name="uniE607" unicode="&#xe607;" 
d="M512 82l-503 604h1006z" />
    <glyph glyph-name="uniE608" unicode="&#xe608;" 
d="M512 -103h10q64 1 125.5 18.5t116 51t99.5 79.5q68 71 103 160.5t33 187.5q-2 97 -41.5 185t-104.5 152t-154.5 102t-186.5 38h-10q-97 -2 -185.5 -40.5t-156 -109t-102.5 -160t-33 -187.5q1 -64 19.5 -126t50.5 -114.5t77 -96.5t98 -75t115 -48t127 -17zM512 -126
q-102 0 -195.5 39t-162 106t-109.5 159.5t-43 195.5q-2 104 36.5 199t105.5 165t160.5 112t197.5 44h10q102 0 195.5 -39t162 -106t109.5 -159.5t43 -195.5q2 -104 -36.5 -199t-105.5 -165t-160.5 -112t-197.5 -44h-10v0zM820 562l-53 74q-6 8 -16 9.5t-18 -3.5
q-43 -29 -108 -101.5t-104.5 -124.5t-75.5 -101l-155 104q-2 1 -5 2t-6 1.5t-6 0t-6 -1.5t-5.5 -3t-4.5 -4l-52 -67q-7 -7 -5.5 -17t8.5 -16l231 -187q7 -5 16 -5h1l57 2q16 1 22 15q21 50 48 98.5t52 85.5t53 72t48.5 57.5t41 42t27.5 25.5t11 10q7 6 8.5 15t-4.5 17z" />
    <glyph glyph-name="uniE609" unicode="&#xe609;" 
d="M30 524l345 17l127 353l178 -359l314 -11l-294 -303l147 -325l-325 191l-350 -213l162 364z" />
    <glyph glyph-name="uniE60A" unicode="&#xe60a;" 
d="M686 752q6 -26 7.5 -35.5t0.5 -34.5q0 -5 -2 -25t-3.5 -40t-0.5 -28t2.5 -11.5t4.5 -9t5 -9.5q12 -25 3 -75q-5 -27 -14 -40q-4 -5 -15.5 -11t-15.5 -13q-4 -8 -5.5 -19.5t-2 -24t-3.5 -20.5q-2 -9 -14 -23.5t-13 -30.5q2 0 27 -4q29 -60 43 -69q6 -2 20.5 -6t21.5 -6
q29 -12 84 -35.5t70 -30.5q10 -4 34 -12t36 -13.5t26 -18t20 -29.5q0 -10 1.5 -68t0.5 -82h-984v36q0 23 0.5 42.5t1 40.5t0.5 31q6 17 20 29.5t26 18t36 13.5t34 12q15 7 70 30.5t84 35.5q6 2 14 4l14 4q8 2 14 4q15 10 43 69l20 5q-2 11 -7.5 18t-11.5 13.5t-8 13.5
q-1 8 -2 20t-2 20.5t-2 20t-2 20.5q0 -1 -4.5 0t-10 2.5t-6.5 2.5q-7 4 -12.5 14t-8.5 25t-4 24.5t-2.5 27.5t-1.5 20q0 4 7 18.5t5 27.5q-21 96 1.5 149.5t75.5 70.5q25 10 42 15.5t47.5 11.5t60.5 0t58 -23l19 -18l32 -5q4 -3 8.5 -8t7.5 -10t5.5 -10t3.5 -9z" />
    <glyph glyph-name="uniE60B" unicode="&#xe60b;" 
d="M327 77q-4 0 -7.5 0.5t-6.5 2t-5.5 3.5t-4.5 5t-3.5 6t-2.5 6.5t-1 6.5v339q0 8 4 15t11 11t16 4q13 0 22 -9t9 -21v-339q0 -12 -9 -21t-22 -9zM512 77q-6 0 -12 2t-10 6.5t-6.5 10t-2.5 11.5v339q0 12 9 21t22 9q6 0 12 -2.5t10 -6.5t6.5 -9.5t2.5 -11.5v-339
q0 -12 -9 -21t-22 -9zM697 77q-13 0 -22 9t-9 21v339q0 6 2.5 11.5t6.5 9.5t10 6.5t12 2.5q4 0 8 -1t7.5 -3t6.5 -5t5 -6t3 -7t1 -8v-339q0 -22 -21 -29zM944 630v-31h-62v-584q0 -51 -36 -87t-87 -36h-494q-51 0 -87 36t-36 87v584h-62v31h-31v31q0 20 6.5 38.5t18 33.5
t26.5 26.5t34 18t39 6.5h127q7 26 24.5 47t42 33t52.5 12h186q42 0 75 -26t44 -66h127q34 0 62.5 -16.5t45 -45t16.5 -61.5v-31h-31zM265 -46h494q25 0 43.5 18t18.5 43v584h-618l-4 -584q0 -12 5.5 -23.5t14.5 -19.5t21.5 -13t24.5 -5zM605 814h-186q-35 0 -53 -30h292
q-18 30 -53 30zM851 722h-678q-10 0 -19.5 -3t-17 -8.5t-13.5 -13.5t-9 -17t-3 -19h73h155h346h155h73q0 25 -18 43t-44 18z" />
    <glyph glyph-name="uniE60C" unicode="&#xe60c;" 
d="M518 389l328 -312q-43 -46 -96 -77.5t-109.5 -48t-116 -17.5t-117 12t-112 42.5t-99.5 72.5l312 328q2 -2 5 -2t5 2zM62 389h900v-10h-900v10zM507 834h10v-900h-10v900zM512 -52q89 0 169.5 34.5t139 93t93 139t34.5 169.5q0 71 -22 137.5t-62.5 120t-94 94t-120 62.5
t-137.5 22t-137.5 -22t-120 -62.5t-94 -94t-62.5 -120t-22 -137.5q0 -166 111 -291q108 -120 266 -141q30 -4 59 -4zM514 723q93 0 172 -45.5t124.5 -124.5t45.5 -171.5t-45.5 -171.5t-124.5 -124.5t-172 -45.5q-55 0 -107 17t-94 49t-74 74t-49 94t-17 108q0 138 97 238
q96 98 233 103h11zM514 229q63 0 108 45t45 108t-45 107.5t-108 44.5t-107.5 -44.5t-44.5 -107.5q0 -16 3 -31t9 -28.5t14.5 -26t18.5 -22.5t22.5 -18.5t26 -14.5t28.5 -9t30 -3zM512 -73q-93 0 -177.5 36t-146 97.5t-97.5 146t-36 177.5t36 177.5t97.5 146t146 97.5
t177.5 36t177.5 -36t146 -97.5t97.5 -146t36 -177.5q0 -173 -114 -302q-111 -125 -275 -150q-34 -5 -68 -5v0zM514 703q-52 0 -101 -16.5t-88.5 -46t-69 -69t-46 -88.5t-16.5 -101q0 -88 43 -162t117 -117t161 -43q66 0 125.5 25.5t102.5 68.5t68.5 102.5t25.5 125.5
q0 52 -16.5 101t-46 88.5t-69 69t-88.5 46t-102 16.5v0zM514 209q-71 0 -121.5 50.5t-50.5 122t50.5 122t122 50.5t122 -50.5t50.5 -122t-50.5 -122t-122.5 -50.5v0zM851 293q25 0 42 -17.5t17 -42t-17 -42t-41.5 -17.5t-42 17.5t-17.5 41.5q0 17 8 30.5t21.5 21.5t29.5 8z
M374 720q24 0 41.5 -17.5t17.5 -41.5q0 -16 -8 -30t-21.5 -22t-29.5 -8q-25 0 -42.5 17.5t-17.5 42.5q0 16 8 29.5t22 21.5t30 8z" />
    <glyph glyph-name="uniE60D" unicode="&#xe60d;" 
d="M0 -67h1024v902zM616 3l-59 59l-159 150l60 58l159 -151l302 286l60 -58z" />
    <glyph glyph-name="uniE60E" unicode="&#xe60e;" 
d="M7 -61h1010v890zM630 84l-21 -21l-1 1l-1 -1l-22 21l1 1l-97 93l22 20l96 -93l245 241l21 -21l-244 -240z" />
    <glyph glyph-name="uniE60F" unicode="&#xe60f;" 
d="M343 21l-82 78l679 648l82 -79zM331 32l-329 314l82 78l330 -313z" />
    <glyph glyph-name="uniE610" unicode="&#xe610;" 
d="M1021 647v-1v-2l-101 -397q-4 -15 -20 -15h-608q-19 0 -33 -14t-14 -33t13.5 -32.5t33.5 -13.5h615q8 0 15.5 -1.5t14.5 -4t13.5 -6.5t12.5 -8.5t10.5 -10.5t8.5 -12t6.5 -13t4 -14.5t1.5 -15.5q0 -36 -25 -61q-13 -12 -29 -18.5t-33.5 -6.5t-34 6.5t-28 18t-18.5 27.5
t-7 34q0 12 4 23.5t12 22.5h-471q16 -23 16 -46q0 -36 -25.5 -61t-62.5 -25q-36 0 -61.5 25t-25.5 61q0 17 6.5 32.5t18.5 27.5q1 2 4 3l5 3q-34 26 -34 66q0 9 1.5 17t4.5 16t8 15t11 13q14 14 38 20l-97 378l-30 118h-119q-4 0 -7.5 1.5t-6.5 4t-4.5 6t-1.5 8.5
q0 8 6 13.5t14 5.5h135q7 0 12.5 -4t7.5 -11l30 -117h159q8 0 14 -6t6 -14t-6 -14t-14 -6h-149l91 -358h577l91 358h-149q-8 0 -14 6t-6 14t6 14t14 6h175q1 -1 2 -1h2h1q1 0 2 -2l2 -1q5 -3 6 -5q1 -1 2 -5l1 -1q0 -1 1 -2.5t1 -2.5l-1 -1v-1v0zM907 6q19 0 33 14q3 2 5 5
t4 6.5t3 7t1.5 7t0.5 7.5q0 19 -14 32.5t-33.5 13.5t-33.5 -14q-14 -13 -14 -32q0 -20 14 -33.5t34 -13.5v0zM292 6q20 0 34 13.5t14 33.5q0 19 -14 32.5t-33.5 13.5t-33.5 -13.5t-14 -32.5q0 -10 3.5 -18.5t10 -14.5t15 -10t18.5 -4v0zM706 635l-95 -94q-3 -3 -7 -4.5
t-8 -1.5q-8 0 -14 6l-95 94q-6 6 -6 14t5.5 14t14 6t14.5 -6l61 -60v140q0 8 6 13.5t14.5 5.5t14 -5.5t5.5 -13.5v-140l62 60q6 6 14 5.5t14 -5.5q4 -4 5.5 -9t0 -10t-5.5 -9z" />
    <glyph glyph-name="uniE611" unicode="&#xe611;" 
d="M1006 614l-249 -47l-123 -375q-10 5 -17 7.5t-19 4.5l123 375l8 25l266 45q4 1 7.5 1t6.5 -0.5t5.5 -2t4 -4.5t2.5 -7q1 -10 -2 -15.5t-13 -6.5zM531 202q-39 -10 -65 -40l-8 -9l-455 153l172 520l228 -77l-45 -138l47 -16l46 138l239 -80l-149 -449zM474 687l-46 -139
l-115 40l44 138l-159 54l-149 -450l398 -135q9 9 19.5 16.5t22 13t23.5 9.5l132 396zM297 362l-20 -61l-115 171l194 64l-20 -60l119 -41l-38 -114zM289 453l9 25l-79 -26l47 -69l8 25l120 -41l15 45zM47 228l380 -124q-8 -24 -8 -37q-1 0 -2.5 0.5t-2.5 0.5l-382 125
q-19 7 -13 27q6 15 28 8zM570 166q47 0 79.5 -33t32.5 -79q0 -30 -15 -56t-40.5 -41t-56 -15t-56 15t-40.5 41t-15 56q0 46 32.5 79t78.5 33zM570 -26q33 0 56 23.5t23 56.5q0 13 -3.5 25t-11 22t-17.5 17.5t-22 11.5t-25 4q-21 0 -39.5 -11t-29 -29t-10.5 -40
q0 -33 23.5 -56.5t55.5 -23.5zM570 79q7 0 13 -3t9 -9t3 -13q0 -10 -7 -17.5t-17.5 -7.5t-18 7.5t-7.5 18t7.5 17.5t17.5 7z" />
    <glyph glyph-name="uniE612" unicode="&#xe612;" 
d="M828 -109l-316 233l-316 -233l120 377l-316 232h391l121 377l121 -377h391l-316 -232zM108 465l250 -184l-96 -297l250 184l250 -184l-96 297l250 184h-309l-95 297l-95 -297h-309z" />
    <glyph glyph-name="uniE613" unicode="&#xe613;" 
d="M913 -121h-802q-8 0 -14.5 3.5t-10 9.5t-3.5 13v554q0 11 8 18.5t20 7.5v378q0 4 1.5 8t4 7t6 5.5t8 4t9.5 1.5h744q5 0 9.5 -1.5t8 -4t6 -5.5t4 -7t1.5 -8v-385l6 6q7 -1 12 -4.5t7.5 -9t2.5 -11.5v-554q0 -5 -2 -10t-6 -8t-9 -5.5t-11 -2.5zM111 -16q117 82 294 205
l-292 263q-1 -1 -1.5 -2.5t-0.5 -3.5v-462zM884 851q0 3 -2 6t-5 4.5t-7 1.5h-716q-3 0 -5.5 -1t-4.5 -2.5t-3 -4t-1 -4.5v-386l359 -323q8 -8 20 -8t20 8l345 310v399zM913 441q-90 -81 -286 -257q15 -11 70.5 -49.5t123 -85.5t92.5 -65v457zM913 -48l-307 214l-67 -61
q-8 -7 -20 -7t-20 7l-74 66l-314 -219v-34q0 -5 4.5 -9t9.5 -4h774q5 0 9.5 4t4.5 9v34zM211 561q0 2 1.5 4.5t3 4t4.5 2.5t6 1h572q4 0 7.5 -1.5t5.5 -4.5t2 -6q0 -6 -4.5 -9.5t-10.5 -3.5h-572q-4 0 -7.5 1.5t-5.5 4.5t-2 7zM798 624h-572q-6 0 -10.5 3.5t-4.5 8.5
q0 4 2 7t5.5 4.5t7.5 1.5h572q4 0 7.5 -1.5t5.5 -4.5t2 -7q-2 -11 -15 -12zM798 699h-572q-6 0 -10.5 4t-4.5 9t4.5 9t10.5 4h572q6 0 10.5 -4t4.5 -9q-2 -11 -15 -13zM798 775h-572q-6 0 -10.5 3.5t-4.5 9.5q0 3 2 6t5.5 4.5t7.5 1.5h572q6 0 10.5 -3.5t4.5 -8.5
q-2 -12 -15 -13zM226 498h286q3 0 5.5 -1t4.5 -3t3 -4.5t1 -4.5q0 -13 -14 -13h-286q-4 0 -7.5 2t-5.5 5t-2 6t2 6t5.5 5t7.5 2z" />
    <glyph glyph-name="uniE614" unicode="&#xe614;" 
d="M303 396q-22 0 -41.5 11t-31 30.5t-11.5 42.5q0 35 25 59.5t59 24.5q23 0 42.5 -11t30.5 -30.5t11 -42.5q0 -17 -6.5 -32.5t-18 -27t-27 -18t-32.5 -6.5zM303 522q-11 0 -21 -5.5t-15.5 -15t-5.5 -21t5.5 -21.5t15.5 -15.5t21 -5.5q18 0 30 12.5t12 30t-12 29.5t-30 12z
M511 396q-35 0 -59.5 24.5t-24.5 59.5q0 17 6.5 32.5t18 27t27 18t32.5 6.5q23 0 42 -11t30.5 -30.5t11.5 -42.5q0 -35 -24.5 -59.5t-59.5 -24.5zM511 522q-18 0 -30 -12t-12 -29.5t12 -30t29.5 -12.5t30 12.5t12.5 29.5q0 29 -27 39zM720 396q-35 0 -59.5 24.5t-24.5 59.5
q0 23 11 42.5t30.5 30.5t42.5 11q13 0 26 -4t23.5 -12t18 -18.5t12 -23t4.5 -26.5t-4.5 -26.5t-12 -23t-18 -18.5t-23.5 -12t-26 -4zM720 522q-18 0 -30 -12t-12 -30q0 -9 3 -16.5t9 -13.5t13.5 -9t16.5 -3q11 0 21 5.5t15.5 15.5t5.5 21q0 29 -27 39q-7 3 -15 3zM1013 -98
l-227 230h-677q-41 0 -69.5 28.5t-28.5 69.5v537q0 16 5 31t14 27.5t21 21.5t27 14t31 5h806q27 0 49.5 -13.5t35.5 -36t13 -49.5v-865zM915 824h-806q-23 0 -39.5 -16.5t-16.5 -40.5v-537q0 -15 7.5 -28t20.5 -20.5t28 -7.5h694l168 -170v763q0 24 -16.5 40.5t-39.5 16.5z
" />
    <glyph glyph-name="uniE615" unicode="&#xe615;" 
d="M537 195q-76 -11 -136.5 37t-71 126.5t36 141.5t122 73.5t136 -37.5t71 -126.5t-36 -141.5t-121.5 -73zM672 407q-5 33 -21.5 62t-41 48t-55.5 28t-64 4q-66 -9 -106.5 -64t-31.5 -123.5t62.5 -110.5t119.5 -32.5t106.5 64.5t31.5 124zM526 313l2 -17q1 -6 -5 -7t-6 5
l-3 17q-16 -1 -29.5 5t-20.5 16l-1 2v2q0 7 6 9q2 0 3.5 -1t2.5 -2q16 -20 42 -16q18 2 27 11t7 24q-2 12 -11.5 18t-22 8t-25.5 4.5t-22.5 11t-11.5 23.5q-1 10 2 18.5t11.5 15.5t21.5 10l-2 18q1 5 5 6q6 1 7 -5l2 -17q28 2 45 -17l2 -5q1 -7 -7 -8q-1 0 -2.5 0.5
t-3.5 1.5q-16 16 -38 13q-31 -4 -28 -29q1 -8 7.5 -13t13 -7t19.5 -5q15 -3 23.5 -5.5t18 -11.5t11.5 -23q5 -41 -40 -50zM863 685l67 10l39 -297zM911 667l-16 -2l24 -65zM93 73l-38 297l106 -287zM113 101l16 2l-24 65zM472 127l507 202l16 -128zM959 296l-292 -117
l302 42zM45 439l-16 128l523 74zM65 472l292 117l-302 -42zM174 -18l-40 107l22 8l31 -84l378 151l8 -23zM90 273l-21 -8l-68 182l50 20l8 -23l-28 -11zM973 301l-8 23l28 11l-59 160l21 8l68 -182zM868 671l-31 84l-378 -151l-8 22l399 160l40 -107zM934 495l-66 176l22 8
l65 -176zM573 141l-8 23l400 160l8 -23zM134 89l-65 176l21 8l66 -176zM59 444l-8 23l400 159l8 -22z" />
    <glyph glyph-name="uniE616" unicode="&#xe616;" 
d="M583 168h-1l439 432l-71 70l-438 -433l-438 433l-71 -70l509 -502v0z" />
    <glyph glyph-name="uniE617" unicode="&#xe617;" 
d="M512 895q-104 0 -198.5 -40.5t-163 -109t-109 -163t-40.5 -198.5q0 -52 10.5 -103t29.5 -96t47 -86.5t62.5 -76t76 -62.5t86.5 -47t96 -29.5t103 -10.5q104 0 198.5 40.5t163 109t109 163t40.5 198.5t-40.5 198.5t-109 163t-163 109t-198.5 40.5zM559 104h-92v110h92
v-110zM573 521l-19 -262h-84l-19 262v143h122v-143z" />
    <glyph glyph-name="uniE618" unicode="&#xe618;" 
d="M1012 789v-23q-25 0 -53.5 -5.5t-37.5 -14.5q-21 -21 -48 -92l-267 -674l-171 -1l-295 661q-9 19 -17 35.5t-15.5 29t-14.5 22t-13 15.5q-13 12 -30 18t-38 6v23h461v-23q-84 0 -102.5 -8t-18.5 -36q0 -17 20 -62t29 -67l181 -405l177 440q7 22 16 47q4 13 5.5 22t1.5 14
t-0.5 9t-1.5 8t-2 7.5t-3 6.5t-4.5 5.5t-5.5 4.5t-6 3q-7 4 -29.5 6.5t-44 3.5t-36.5 1v23h363z" />
    <glyph glyph-name="uniE619" unicode="&#xe619;" 
d="M69 261q-5 16 -21 16l-6 -1q-5 -1 -9 -5t-5.5 -9.5t-0.5 -11.5q0 -1 1 -1v-1q4 -15 20 -15h6q9 3 13.5 10.5t1.5 16.5v1zM31 356q9 0 15 6.5t6 15.5v1q0 9 -6 15t-15 6h-1q-4 0 -8 -1.5t-6.5 -4.5t-4.5 -7t-2 -8v-1v-1q0 -9 6.5 -15t15.5 -6zM115 152q-6 10 -18 10
q-6 0 -11 -3q-8 -4 -10 -12.5t2 -16.5v0l1 -1q3 -5 8 -8t10 -3l11 3q8 5 10 13.5t-2 16.5zM180 702l1 1q3 3 4.5 6t2 6.5t0 6.5t-2.5 6l-4 6q-6 6 -15 6q-4 0 -8 -1.5t-7 -5.5q-1 -1 -2 -1q-4 -4 -5 -9.5t0.5 -11t5.5 -9.5q7 -6 15 -6h4l4 2q2 0 4 1.5t3 2.5zM188 58
q-6 6 -15 6q-3 0 -5.5 -0.5t-5 -2t-4.5 -3.5q-4 -4 -5.5 -9.5t0 -11.5t5.5 -10h1v-1q6 -6 15 -6t15.5 6.5t6.5 15.5t-7 15zM273 777l1 1q5 3 8 8t3 10.5t-3 10.5t-8 7.5t-11 2.5q-3 0 -5.5 -0.5t-5.5 -2.5v0h-1q-8 -5 -10 -13.5t3 -16.5q6 -10 18 -10q6 0 11 3zM618 831h1
q3 -1 5 -1q17 0 21 17q2 9 -2.5 16.5t-12.5 9.5h-2l-5 1q-7 0 -13 -4.5t-8 -12.5t2.5 -16t13.5 -10zM952 519q1 -4 3 -6.5t5 -4.5t6 -3t7 -1l6 1q8 2 12.5 10t1.5 16v2q-1 4 -3.5 6.5t-5 4.5t-5.5 3t-6.5 1t-6.5 -1q-9 -2 -13 -10t-1 -17v-1zM499 843h1h1q9 1 15 7.5t6 14.5
q0 5 -2 9t-4.5 6.5t-6.5 4t-8 1.5h-1h-1h-1q-9 0 -15 -6.5t-5.5 -15t6.5 -15t15 -6.5zM80 598q5 -2 11 -2t11 2.5t8 8.5v1q5 8 2.5 16.5t-10.5 12.5q-2 1 -5 2t-5 1q-6 0 -11 -3t-8 -8q-1 -1 -1 -2q-4 -7 -1.5 -15.5t9.5 -13.5zM376 824l6 1h1q9 3 13 10.5t2 16.5
q-5 15 -21 15h-3h-3v-1h-1q-6 -2 -10 -6t-5 -9.5t0 -10.5q2 -5 5 -8.5t7 -5.5t9 -2zM40 480h5q17 0 21 16v1q2 9 -2.5 16.5t-12.5 10.5h-6q-4 0 -8.5 -2t-7.5 -5.5t-4 -8.5v-1h-1v0v-1q-1 -5 0.5 -10.5t5.5 -9.5t10 -6zM394 -60h-1q-3 1 -6 1q-5 0 -9 -2t-7 -5.5t-5 -8.5
q-2 -9 2.5 -16.5t12.5 -9.5h1v-1h1h6q4 0 8.5 1.5t7.5 5.5t4 9q2 4 1 8t-3 7.5t-5.5 6.5t-7.5 4zM284 -15l-1 1q-5 3 -11 3q-12 0 -19 -11q-2 -6 -2 -11.5t2.5 -10.5t7.5 -8h2q2 -2 5 -2.5t5 -0.5q13 0 19 11q4 7 2 16t-10 13zM868 82q-4 0 -8 -2t-7 -5l-1 -1
q-4 -4 -5.5 -10t0.5 -11t6 -9q6 -6 14 -6q5 0 9 1.5t7 5.5l1 1q6 7 6 15.5t-7 14.5q-2 2 -4.5 3.5t-5 2t-5.5 0.5zM950 182q-3 1 -5.5 1.5t-4.5 0.5q-6 0 -11.5 -3t-7.5 -8l-1 -2q-3 -5 -2.5 -10.5t3.5 -10.5t8 -8q5 -2 10 -2q13 0 19 11v1l1 1q2 4 2 8t-1 8t-3.5 7.5
t-6.5 5.5zM987 301h-3h-2q-17 0 -21 -17v-1q-1 -6 0.5 -11.5t6 -9t9.5 -5.5h5q17 0 21 16v1v1q2 9 -2.5 16.5t-13.5 9.5zM856 750l-1 1q-6 6 -14 6q-10 0 -16 -7q-6 -6 -5.5 -15t6.5 -15l1 -1q6 -6 15 -6q4 0 8 2t7 5q4 4 5.5 9.5t0 11t-6.5 9.5zM1015 404v1q-1 6 -3.5 10.5
t-7.5 7t-11 2.5h-1q-9 0 -15 -6.5t-5 -15.5v-1q0 -3 0.5 -5.5t1.5 -4.5t2.5 -3.5t3.5 -3t4 -2.5t4.5 -1.5t4.5 -0.5h1q9 0 15 6.5t6 15.5v1zM932 620q5 3 8 8t2.5 11t-3.5 11h-1v1q-6 10 -18 10l-11 -3q-8 -5 -10 -13.5t3 -16.5l1 -1q3 -5 7.5 -7.5t10.5 -2.5zM539 -75h-2
h-1q-3 0 -6 -1t-6 -3q-5 4 -12 4h-1q-9 0 -15.5 -6.5t-6.5 -15.5q0 -6 3 -11t8 -7.5t11 -2.5h1h4q1 0 3 0.5t3.5 1.5t2.5 2l12 -4h1v0h1h1q9 1 14.5 7.5t5.5 15.5q0 8 -6.5 14t-14.5 6zM661 -52q-3 0 -7 -1l-1 -1q-6 -1 -9.5 -5.5t-5 -10t0.5 -11.5t8 -10t13 -4q3 0 6 1h1v0
h1q8 3 12 11t1 16q-2 7 -7.5 11t-12.5 4zM773 1q-3 0 -6 -0.5t-5 -2.5l-1 -1q-8 -5 -10 -13.5t3 -15.5q6 -10 18 -10q3 0 6 0.5t6 2.5v0l1 1q8 5 9.5 13.5t-3.5 16.5q-7 9 -18 9zM760 797q4 8 1.5 16.5t-10.5 12.5q0 1 -2 1q-4 3 -10 3q-12 0 -19 -12q-4 -7 -1.5 -15.5
t10.5 -13.5h2q4 -3 10 -3q13 0 19 11zM536 385h194v46h-194v111h197v46h-441v-46h198v-316h-120v273h-45v-273h-37v-46h448v46h-200v159z" />
    <glyph glyph-name="uniE61A" unicode="&#xe61a;" 
d="M791 -29q-11 0 -21 4t-17 11t-11 17t-4 21q0 8 2.5 16t7.5 14.5t11.5 11.5t14.5 8t17 3q22 0 37.5 -15.5t15.5 -37.5t-15.5 -37.5t-37.5 -15.5zM426 -29q-15 0 -27 7t-19.5 19t-7.5 27q0 22 16 37.5t37.5 15.5t37.5 -15.5t16 -37.5t-16 -37.5t-37 -15.5zM357 123
q-19 0 -37 7.5t-31 20.5t-21 31t-8 38q0 37 25 65l9 10l-9 10q-7 10 -11 22l-92 328q-2 11 -12 22q-4 6 -9.5 10.5t-9.5 6.5l-136 66q-8 4 -10.5 11.5t1.5 14.5q5 11 17 11q3 0 5 -0.5t4 -1.5l136 -66q17 -9 32 -26q15 -19 20 -37l92 -328q1 -5 4 -8.5t6 -5.5q8 -6 16 -6h3
h527h4q8 0 16 6q7 6 9 14l85 337q3 15 19 15q2 0 4 -1q8 -2 12.5 -8.5t2.5 -14.5l-85 -338q-5 -21 -23.5 -35t-39.5 -15h-510h-1h-4q-23 0 -40 -17t-17 -41q0 -12 4.5 -22.5t12 -18.5t18.5 -12.5t22 -4.5h548q6 0 10.5 -2.5t7 -7t2.5 -10.5q0 -8 -6 -13.5t-14 -5.5h-548z
M421 379q-22 0 -40 14q-9 7 -15.5 16t-8.5 19l-64 235q-2 7 -2 14q0 19 14 32q13 13 33 13h523h7q3 0 6 -1l6 -2q3 -1 5.5 -2.5t5 -3.5t4.5 -4q14 -13 14 -33q0 -6 -2 -13l-58 -235q-1 -7 -4.5 -13t-8 -11.5t-10.5 -10.5q-19 -14 -40 -14h-365zM786 418q4 0 8 1.5t8 4.5
q7 6 9 14l24 95h-123v-115h71h3zM405 424q3 -3 7.5 -4.5t8.5 -1.5h3h68v115h-123l26 -95q2 -8 10 -14zM532 418h141v115h-141v-115zM712 572h132l28 111h-160v-111zM532 572h141v111h-141v-111zM358 572h134v111h-164zM426 -29q-15 0 -27 7t-19.5 19t-7.5 27q0 22 16 37.5
t37.5 15.5t37.5 -15.5t16 -37.5t-16 -37.5t-37 -15.5zM357 123q-19 0 -37 7.5t-31 20.5t-21 31t-8 38q0 37 25 65l9 10l-9 10q-7 10 -11 22l-92 328q0 3 -2 7t-4.5 8t-5.5 7q-4 6 -9.5 10.5t-9.5 6.5l-136 66q-8 4 -10.5 11.5t1.5 14.5q5 11 17 11q5 0 9 -2l136 -66
q17 -9 32 -26q15 -19 20 -37l92 -328q1 -5 4 -8.5t6 -5.5q8 -6 16 -6h3h527h4q8 0 16 6q7 6 9 14l85 337q3 15 19 15q2 0 4 -1q8 -2 12.5 -8.5t2.5 -14.5l-85 -338q-5 -21 -23.5 -35t-39.5 -15h-510h-1h-4q-23 0 -40 -17t-17 -41q0 -12 4.5 -22.5t12 -18.5t18.5 -12.5
t22 -4.5h548q6 0 10.5 -2.5t7 -7t2.5 -10.5q0 -8 -6 -13.5t-14 -5.5h-548z" />
    <glyph glyph-name="uniE61B" unicode="&#xe61b;" 
d="M1016 460h-430v428h-150v-428h-428v-152h428v-428h150v428h430v152z" />
    <glyph glyph-name="uniE61C" unicode="&#xe61c;" 
d="M63 167v722h449v-1010zM512 -121v1010h449v-722z" />
    <glyph glyph-name="uniE61D" unicode="&#xe61d;" 
d="M294 890l-60 -62l435 -443l-432 -445l60 -62l433 445l60 62z" />
    <glyph glyph-name="uniE61E" unicode="&#xe61e;" 
d="M730 -122l60 62l-435 443l432 445l-60 62l-433 -445l-60 -62z" />
    <glyph glyph-name="uniE61F" unicode="&#xe61f;" 
d="M86 469l426 426l426 -426h-852zM427 -127v596h170v-596h-170z" />
    <glyph glyph-name="uniE620" unicode="&#xe620;" 
d="M938 299l-426 -426l-426 426h852zM597 895v-596h-170v596h170z" />
    <glyph glyph-name="uniE621" unicode="&#xe621;" 
d="M255 11l-2 1q-6 5 -14 5q-14 0 -21 -11q-6 -8 -4 -18.5t10 -16.5h1l1 -1q6 -5 14 -5q13 0 21 11q6 9 4 19t-10 16zM127 625l1 1q6 9 3.5 19.5t-11.5 15.5q-6 4 -13 4t-12.5 -3t-9.5 -9v-1h-1q-5 -9 -2.5 -19.5t10.5 -15.5q7 -4 14 -4q14 0 21 12zM60 361v2q-1 10 -8 17
t-18 7h-1q-10 -1 -17 -8.5t-7 -17.5v-1v-1q1 -5 3 -9.5t5.5 -8t8 -5t8.5 -1.5h2q10 0 17 8t7 18zM218 731q8 7 9 17t-6 18l-3 4l-4 2l-4 2h-4q-2 1 -4 1q-10 0 -17 -6l-1 -1q-8 -7 -9 -17.5t6 -18.5q8 -9 19 -9q10 0 17 7zM154 108q-8 9 -20 9q-9 0 -16 -5q-4 -3 -6.5 -7.5
t-3 -9t0.5 -9.5t5 -9v-1l1 -1q7 -10 20 -10q8 0 15 6q8 6 9.5 16.5t-4.5 18.5zM87 228q-6 17 -24 17q-2 0 -4 -0.5t-4 -1.5q-10 -4 -14.5 -13.5t-0.5 -18.5v-1v-1q2 -5 5.5 -9t8.5 -6t10 -2q4 0 9 2q6 2 10.5 7.5t5.5 12t-1 12.5zM733 784l2 -1l6 -2q3 -1 6 -1q15 0 22 13
q3 7 3 13.5t-3.5 12t-9.5 9.5v0q-1 0 -1 1q-2 1 -4 1.5t-4.5 1t-4.5 0.5q-15 0 -22 -13q-2 -4 -2.5 -8t0 -8t2 -7.5t4.5 -6.5t6 -5zM43 480q3 -1 6 -1q5 0 10.5 2.5t9 7t4.5 9.5l1 2q2 10 -3 19t-15 12q-2 0 -3.5 0.5t-3.5 0.5q-19 0 -24 -19v-1v0l-1 -1q-1 -7 0.5 -13.5
t6.5 -11t12 -6.5zM964 457v-2q1 -9 8.5 -15t16.5 -6h2h2q10 2 16.5 10.5t4.5 18.5v1v1q-1 6 -4.5 11t-9 7.5t-11.5 2.5h-4q-11 -2 -17 -10.5t-4 -18.5zM604 831h2h5q9 0 16 5.5t8 14.5q3 10 -3 18.5t-16 11.5h-1h-1q-2 1 -5 1q-9 0 -16 -6t-9 -15q-2 -10 4 -18.5t16 -11.5z
M464 838h2h2q10 1 17 9t6 19q-1 9 -8.5 15.5t-16.5 6.5h-3h-2q-10 -1 -17 -9t-5 -19q1 -9 8 -15.5t17 -6.5zM844 699q3 -4 8 -6t10 -2q10 0 17 7q8 8 8 18t-7 18v0v1h-1v1q-4 3 -8.5 5t-9.5 2q-3 0 -6.5 -0.5t-6 -2.5t-5.5 -4q-7 -7 -7.5 -17.5t6.5 -18.5zM750 -8
q-6 0 -12 -3l-1 -1q-10 -5 -12.5 -15t2.5 -19q7 -13 22 -13q6 0 12 3v0h1v0l1 1q9 5 12 15t-2 19q-8 13 -23 13zM882 75q-4 4 -8.5 5.5t-8.5 1.5q-11 0 -19 -8l-1 -1q-5 -5 -6.5 -11.5t0.5 -13t7 -11.5q3 -2 5.5 -3.5t5.5 -2.5t7 -1q10 0 18 8l1 1q7 8 7 18.5t-8 17.5z
M958 199q-5 3 -11 3q-7 0 -13.5 -4t-9.5 -11v-1q-3 -7 -3 -13t4 -12t10 -9q3 -1 5.5 -1.5t5.5 -0.5q16 0 23 14l1 1v1q3 6 2.5 12.5t-4.5 12t-10 8.5zM923 586q7 -14 22 -14l11 3q7 3 10.5 8.5t4 12t-2.5 13.5l-1 1v1q-3 6 -9.5 9.5t-13.5 3.5q-5 0 -11 -2q-9 -5 -12.5 -15
t1.5 -19zM615 -59q-3 0 -6 -1h-1q-7 -2 -12 -6.5t-7 -10.5t-1 -13q2 -9 9 -14.5t16 -5.5h5h1l1 1q10 2 16 10.5t3 19.5q-1 8 -8 14t-16 6zM993 340q-2 1 -3 1q-4 0 -6.5 -1t-5.5 -2t-5 -3t-4 -4.5t-3 -5.5t-1 -6l-1 -2q-1 -10 5 -18.5t17 -9.5q2 -1 3 -1h4l4 2q2 0 4 1
t3.5 2t3 2.5t2.5 3t2 3.5t1.5 4t0.5 4v1q1 0 1 1q0 5 -1 10t-4 8.5t-7.5 6.5t-9.5 3zM378 -49h-1q-4 2 -8 2q-19 0 -24 -18q-3 -10 1.5 -19.5t14.5 -12.5h2q4 -2 8 -2q8 0 14.5 5t9.5 13q1 4 1 8t-1.5 8t-3.5 7t-5.5 5.5t-7.5 3.5zM348 837q-7 15 -23 15q-3 0 -5.5 -0.5
t-4.5 -1.5h-1l-1 -1q-9 -4 -13 -13.5t0 -19.5q2 -5 5.5 -8.5t8 -5t9.5 -1.5h3q2 0 4 0.5t3 1.5l2 1q9 4 13 13.5t0 19.5zM514 -70h-1q-6 0 -10.5 -2t-8 -5.5t-5.5 -8t-2 -9.5q0 -10 7.5 -17.5t17.5 -7.5h1h1v0q11 0 18.5 7t7.5 17.5t-7.5 18t-18.5 7.5zM284 586h42v-403h-42
v403zM740 219q-41 11 -65 40q-22 27 -33 79h98v46h-17v107q0 49 -37 65q-11 4 -33 4h-46v35h-46v-35h-105v-45h105v-131h-110v-46h104q-9 -44 -35 -74q-15 -16 -33.5 -27.5t-41.5 -17.5v-45q28 4 45 11q41 15 69 51q24 29 40 86q6 -27 11 -42q12 -35 36 -60q12 -12 26 -21.5
t31 -15.5t37 -9v45zM607 384v131h40q31 0 31 -29v-102h-71zM404 594h-46v-421h46v238h38v46h-38v137z" />
    <glyph glyph-name="uniE622" unicode="&#xe622;" 
d="M128 625l1 1q3 6 3.5 12.5t-3 12.5t-8.5 10q-2 1 -3.5 1.5t-3.5 1t-3.5 1t-3.5 0.5q-14 0 -21 -12l-1 -1v-1q-6 -9 -3.5 -19t11.5 -16q6 -3 13 -3t12.5 3t9.5 9zM255 12l-2 1q-6 4 -14 4q-6 0 -11.5 -2.5t-9.5 -7.5q-6 -9 -4 -19t10 -16v-1h1l1 -1q7 -4 14 -4q14 0 21 11
q4 5 4.5 12t-2.5 13t-8 10zM87 228q-2 8 -8.5 12.5t-14.5 4.5l-9 -2q-10 -3 -14.5 -12.5t-0.5 -19.5v-1l1 -1q6 -16 23 -16q5 0 9 1q10 4 14.5 13.5t0.5 19.5zM154 108q-8 10 -20 10q-9 0 -15 -6q-9 -6 -10 -16.5t5 -18.5v-1h1v0q4 -5 9 -7.5t11 -2.5q9 0 16 5q8 7 9 17
t-5 19zM218 730q8 7 9 17.5t-6 18.5q-8 9 -19 9q-5 0 -9 -1.5t-8 -4.5l-1 -2q-5 -4 -7.5 -10.5t-1 -13t5.5 -11.5q8 -9 20 -9q4 0 8.5 1.5t7.5 4.5zM43 480q2 0 3.5 -0.5t2.5 -0.5q20 0 25 19v2q3 10 -2.5 19t-15.5 12h-6q-9 0 -15.5 -5t-9.5 -13v-1v0v-1q-1 -4 -1 -8
t1.5 -8t4 -7t6 -5t7.5 -3zM378 -49l-1 1l-8 1q-18 0 -24 -18q-3 -10 1.5 -19t14.5 -12h1l1 -1q4 -1 8 -1q8 0 14.5 5t9.5 13q2 7 0.5 13t-6 11t-11.5 7zM733 784l1 -1q6 -3 13 -3q15 0 22 13q5 9 2 19t-12 15l-1 1h-1q-3 2 -6 2.5t-6 0.5q-15 0 -22 -13q-5 -9 -2 -19t12 -15
zM963 457v-2q1 -4 3.5 -8t5.5 -7t7.5 -4.5t8.5 -1.5h4q11 2 17 10t4 19v1v1q0 2 -1 4l-2 4q-1 2 -2.5 4t-3 3t-3.5 2.5t-4 1.5l-4 2h-5h-2h-2q-10 -2 -16 -10.5t-5 -18.5zM323 800l10 2l2 1q10 4 13.5 14t-0.5 19q-6 16 -23 16q-5 0 -10 -2l-1 -1h-1q-4 -2 -7.5 -6
t-5.5 -8.5t-2 -9.5t2 -9q7 -16 23 -16zM604 831h2q1 -1 2 -1h3q8 0 15.5 5.5t8.5 14.5q2 11 -3.5 19.5t-15.5 10.5h-1h-1q-1 1 -2 1h-3q-9 0 -16 -5.5t-9 -14.5q-2 -11 4 -19.5t16 -10.5zM60 361v2q0 10 -7.5 17t-17.5 7h-1q-11 -1 -18 -8.5t-6 -17.5v-1v-1q0 -11 7.5 -17.5
t17.5 -6.5h1q11 0 18 8t6 18zM882 75q-8 7 -18 7q-5 0 -9.5 -2t-8.5 -6l-1 -1q-7 -7 -7 -17.5t8 -18.5q3 -3 7.5 -4.5t9.5 -1.5t10 2t8 5h1v1l1 1q4 5 6 11.5t0 13t-7 10.5zM922 586q2 -3 4.5 -5.5t5.5 -4.5t6 -3t7 -1q3 0 5.5 0.5t5.5 2.5q6 3 10 8.5t4 12t-3 13.5v1h-1
q-7 14 -22 14q-6 0 -11 -2q-5 -3 -8 -6.5t-5 -8.5t-1.5 -10t2.5 -9zM750 -7q-3 0 -6 -1t-6 -3l-2 -1q-6 -3 -9.5 -9t-3.5 -12.5t4 -12.5q7 -13 22 -13q6 0 12 3q0 1 1 1h1q9 5 11.5 15.5t-2.5 19.5q-3 6 -9 9.5t-13 3.5zM993 340q-2 1 -4 1q-9 0 -16.5 -6.5t-8.5 -15.5v-2
q-2 -10 4.5 -18.5t16.5 -9.5q2 -1 4 -1q9 0 16 6.5t9 15.5v1v1q1 5 -0.5 10t-4.5 8.5t-7 6.5t-9 3zM958 199q-6 3 -11 3q-8 0 -14 -4t-9 -10l-1 -2q-2 -4 -2.5 -9.5t1 -10t5 -8t8.5 -6.5q5 -2 11 -2q16 0 22 14q1 0 1 1v1q3 5 3 10t-1.5 9.5t-5 8t-7.5 5.5zM843 699
q8 -8 19 -8q2 0 4.5 0.5t4.5 1.5l4 2q2 1 4 3q5 5 7 11.5t0.5 13t-6.5 11.5h-1q0 1 -1 1q-7 8 -18 8q-4 0 -9 -2t-8 -5q-5 -5 -7 -11.5t-0.5 -13t6.5 -11.5zM466 837h2q7 1 12.5 5t8 10t2.5 13l-2 6q-1 3 -2.5 5.5t-4 4.5t-5 3.5t-5.5 2.5t-6 1h-3h-2q-10 -2 -16.5 -10
t-5.5 -18t8 -16.5t17 -6.5h2zM514 -69h-1q-11 0 -18.5 -7.5t-7.5 -18t7.5 -18t17.5 -7.5h1h1v0q11 0 18 7.5t7 18t-7 18t-18 7.5zM615 -59h-3h-3l-1 -1q-11 -2 -16.5 -10.5t-3.5 -19.5q2 -9 9 -14.5t16 -5.5l5 1h1h1q10 2 15.5 11t3.5 19q-1 4 -3 8t-5.5 6.5t-7.5 4t-8 1.5z
M740 220q-13 4 -27 7.5t-29 8.5t-32 10q20 13 34 23q18 14 31 32q8 10 11.5 20t3.5 20q0 41 -62 41h-220v-45h200q25 0 27 -1q2 -2 2 -5t-4 -8q-14 -18 -32 -31q-14 -11 -44 -24q-9 4 -18 9t-18 10.5t-17.5 11.5t-17.5 12h-59q13 -14 23.5 -23.5t18.5 -15.5q12 -9 36 -25
q-74 -22 -94 -27v-47q72 19 146 47q43 -18 68 -27q13 -4 31 -9t42 -11v47zM493 411q0 3 0.5 5.5t1 4.5t2.5 3q4 4 18 4h160q19 0 19 -17v-12h45v34q0 18 -17 33v55h-46v-47h-60v47h-46v-47h-61v47h-46v-56q-10 -11 -13 -17t-3 -16v-33h46v12zM394 503h42v47h-42v45h-46v-45
h-64v-47h64v-113q-33 -19 -64 -22v-48q22 3 31 5q5 2 13 5t20 8v-87v-4q0 -2 -0.5 -4t-1.5 -4t-2 -3l-2 -4l-2 -2q-7 -7 -27 -7h-16v-47h15q39 0 56 12q26 18 26 57v123q10 6 21 11.5t23 9.5v46q-10 -2 -21 -6t-23 -10v84zM447 538h232q10 0 18 2t15.5 6.5t12.5 10.5
q12 13 15 38h-46q-2 -7 -5 -9q-3 -3 -26 -3h-216v-45z" />
    <glyph glyph-name="uniE623" unicode="&#xe623;" 
d="M1014 -64q-6 -6 -13 -6h-978q-7 0 -13 6q-2 2 -3.5 5.5t-1.5 6.5q0 5 0.5 15.5t5.5 37.5t13.5 54.5t26.5 63.5t42.5 67.5t64 63t88.5 53.5q15 8 24 -7q24 -43 62 -75t84 -49t96 -17t96.5 17t84 49t61.5 75q4 6 10.5 8t13.5 -1q38 -17 71 -40t56 -47t41.5 -52t30 -52
t20.5 -50t13 -44.5t6 -36t2.5 -24t0.5 -9.5q0 -2 -0.5 -4.5t-1.5 -4.5t-3 -3zM777 263q-43 -67 -113.5 -106t-151.5 -39t-151.5 39t-113.5 106q-49 -24 -86.5 -58.5t-58 -66.5t-34.5 -68.5t-18.5 -59t-6.5 -43.5h938q-2 21 -6.5 43.5t-18.5 59t-34.5 68.5t-58 66.5
t-86.5 58.5zM512 221q-88 0 -151 62t-63 149v194q0 58 28.5 106.5t78 77t107.5 28.5q89 0 151.5 -62t62.5 -150v-194q0 -21 -4.5 -42t-12.5 -40t-19.5 -36t-26 -31.5t-32 -26t-36.5 -19.5t-40 -12t-43 -4zM689 626q0 73 -52 124t-125 51t-125 -51t-52 -124v-194
q0 -72 52 -123.5t125 -51.5t125 51.5t52 123.5v194z" />
    <glyph glyph-name="uniE624" unicode="&#xe624;" 
d="M786 -113h-548q-34 0 -58.5 23t-24.5 55v454q0 32 24.5 55t58.5 23h102l-33 55q-49 79 -24 166.5t109 133.5q58 29 117 29.5t114 -29t86 -80.5l19 -30l-29 -16l-23 37q-39 64 -119.5 82t-148.5 -20q-69 -38 -92.5 -111.5t15.5 -138.5l48 -78h407q34 0 58.5 -23t24.5 -55
v-454q0 -16 -6.5 -30.5t-17.5 -25t-26.5 -16.5t-32.5 -6zM836 388q0 12 -4.5 24t-12 22t-17.5 17t-23 11t-26 4h-482q-22 0 -41.5 -10.5t-30.5 -28.5t-11 -39v-392q0 -32 24.5 -55t58.5 -23h482q34 0 58.5 23t24.5 55v392z" />
    <glyph glyph-name="uniE625" unicode="&#xe625;" 
d="M792 -120h-560q-35 0 -60 24.5t-25 59.5v487q0 35 25 59.5t60 24.5h51v118q0 97 69.5 166t167.5 69q49 0 93 -18.5t75.5 -50t50.5 -75t19 -91.5v-118h34q23 0 42.5 -11t31 -30.5t11.5 -42.5v-487q0 -14 -4.5 -26.5t-12 -23t-18 -18.5t-23.5 -12t-27 -4zM724 661
q0 79 -61 136t-143 57q-53 0 -100 -25.5t-75 -70.5t-28 -97v-126h407v126zM843 418q0 22 -11.5 41.5t-31 31t-42.5 11.5h-492q-35 0 -60 -25t-25 -59v-420q0 -35 25 -59.5t60 -24.5h492q35 0 60 24.5t25 59.5v420z" />
  </font>
</defs>
</svg>
