<?xml version="1.0" standalone="no"?>
<!DOCTYPE svg PUBLIC "-//W3C//DTD SVG 1.1//EN" "http://www.w3.org/Graphics/SVG/1.1/DTD/svg11.dtd" >
<svg xmlns="http://www.w3.org/2000/svg">
<metadata>
Created by FontForge 20120731 at Tue Mar  8 14:13:38 2016
 By Ads
</metadata>
<defs>
<font id="iconfont" horiz-adv-x="1024" >
  <font-face 
    font-family="iconfont"
    font-weight="500"
    font-stretch="normal"
    units-per-em="1024"
    panose-1="2 0 6 3 0 0 0 0 0 0"
    ascent="896"
    descent="-128"
    x-height="792"
    bbox="0 -170 1025 896"
    underline-thickness="50"
    underline-position="-100"
    unicode-range="U+0078-E625"
  />
<missing-glyph horiz-adv-x="374" 
d="M34 0v682h272v-682h-272zM68 34h204v614h-204v-614z" />
    <glyph glyph-name=".notdef" horiz-adv-x="374" 
d="M34 0v682h272v-682h-272zM68 34h204v614h-204v-614z" />
    <glyph glyph-name=".null" horiz-adv-x="0" 
 />
    <glyph glyph-name="nonmarkingreturn" horiz-adv-x="341" 
 />
    <glyph glyph-name="x" unicode="x" horiz-adv-x="1001" 
d="M281 543q-27 -1 -53 -1h-83q-18 0 -36.5 -6t-32.5 -18.5t-23 -32t-9 -45.5v-76h912v41q0 16 -0.5 30t-0.5 18q0 13 -5 29t-17 29.5t-31.5 22.5t-49.5 9h-133v-97h-438v97zM955 310v-52q0 -23 0.5 -52t0.5 -58t-10.5 -47.5t-26 -30t-33 -16t-31.5 -4.5q-14 -1 -29.5 -0.5
t-29.5 0.5h-32l-45 128h-439l-44 -128h-29h-34q-20 0 -45 1q-25 0 -41 9.5t-25.5 23t-13.5 29.5t-4 30v167h911zM163 247q-12 0 -21 -8.5t-9 -21.5t9 -21.5t21 -8.5q13 0 22 8.5t9 21.5t-9 21.5t-22 8.5zM316 123q-8 -26 -14 -48q-5 -19 -10.5 -37t-7.5 -25t-3 -15t1 -14.5
t9.5 -10.5t21.5 -4h37h67h81h80h64h36q23 0 34 12t2 38q-5 13 -9.5 30.5t-9.5 34.5q-5 19 -11 39h-368zM336 498v228q0 11 2.5 23t10 21.5t20.5 15.5t34 6h188q31 0 51.5 -14.5t20.5 -52.5v-227h-327z" />
    <glyph glyph-name="uniE600" unicode="&#xe600;" 
d="M645 111q-34 0 -58 -24t-24 -58t24 -58t58 -24t58 24t24 58t-24 58t-58 24zM264 111q-34 0 -58 -24t-24 -58t24 -58t58 -24t58 24t24 58t-24 58t-58 24zM872 821l-34 -133h-838l169 -526h574l127 494l33 129h121v36h-152zM470 652h165l-18 -124h-147v124zM49 652h191
l11 -124h-162zM101 492h153l9 -106h-128zM196 198l-49 152h119l13 -152h-83zM276 652h158v-124h-147zM434 198h-119l-13 152h132v-152zM434 386h-135l-9 106h144v-106zM568 198h-98v152h121zM470 386v106h141l-15 -106h-126zM713 198h-108l22 152h125zM761 386h-129l16 106
h140zM797 528h-144l18 124h158z" />
    <glyph glyph-name="uniE601" unicode="&#xe601;" 
d="M455.5 7q-95.5 0 -177 47.5t-129 129t-47.5 177t47.5 177t129 129t176.5 47.5q72 0 137.5 -28t113 -75.5t75.5 -113t28 -137.5q0 -95 -47.5 -176.5t-129 -129t-177 -47.5zM455 627q-110 0 -188 -78t-78 -188.5t78 -188.5t188.5 -78t188.5 78t78 188q0 73 -35.5 134
t-97 97t-134.5 36zM868 -106q-10 0 -20 4t-18 12l-184 184q-16 16 -16 38t15.5 38t38 16t38.5 -16l184 -185q16 -15 16 -37.5t-16 -37.5q-5 -5 -11 -9t-13 -5.5t-14 -1.5z" />
    <glyph glyph-name="uniE602" unicode="&#xe602;" 
d="M884 550l-8 -2q-3 2 -6 2h-468q-6 0 -10 -4t-4 -10t4 -10t10 -4h464l-43 -329h-452l-119 388q-1 3 -2.5 5t-2.5 3q-2 1 -3.5 2t-3 1.5t-3.5 0.5h-96q-6 0 -10 -4t-4 -10q0 -3 1.5 -5.5t3 -4.5t4 -3.5t5.5 -1.5h87l117 -382q1 -4 4 -6q0 -4 2 -6.5t5 -4t6 -1.5h471l8 2
q7 3 8 12l47 356q0 3 -1.5 6.5t-4 6t-6.5 3.5zM636 293v114q0 6 -4 10.5t-10 4.5t-10 -4.5t-4 -10.5v-114q0 -4 2 -7.5t5 -5.5t7 -2q13 2 14 15zM705 293v114q0 3 -1 5t-2 3.5t-2.5 3t-4 2.5t-4.5 1q-4 0 -7 -2t-5 -5.5t-2 -7.5v-114q0 -6 4 -10.5t10 -4.5q3 0 5.5 1.5
t4.5 3t3 4.5t1 6zM773 293v114q0 4 -1.5 7.5t-5 5.5t-6.5 2q-6 0 -10 -4.5t-4 -10.5v-114q0 -4 2 -7.5t5 -5.5t6.5 -2t7 2t5 5.5t1.5 7.5zM430 293v114q0 6 -4 10.5t-10 4.5t-10 -4.5t-4 -10.5v-114q0 -6 4 -10.5t10 -4.5t10 4.5t4 10.5zM498 293v114q0 6 -4 10.5t-9.5 4.5
t-9.5 -4.5t-4 -10.5v-114q0 -6 4 -10.5t10 -4.5q3 0 6.5 2t5 5.5t1.5 7.5zM567 293v114q0 6 -4 10.5t-10 4.5q-3 0 -6.5 -2t-5 -5.5t-1.5 -7.5v-114q0 -6 4 -10.5t9.5 -4.5t9.5 4.5t4 10.5zM452 152q-29 0 -50 -21.5t-21 -51.5t21 -51t50 -21t49.5 21t20.5 51
q0 20 -9.5 36.5t-25.5 26.5t-35 10zM452 35q-12 0 -21.5 6t-15.5 16t-6 22t6 22t15.5 16t21 6t21.5 -6t15.5 -16t5.5 -22q0 -29 -26 -40q-8 -3 -16 -4zM756 152q-29 0 -49.5 -21.5t-20.5 -51.5t20.5 -51t49.5 -21t50 21t21 51q0 20 -9.5 36.5t-26 26.5t-35.5 10zM756.5 35
q-17.5 0 -30 13t-12.5 31q0 7 2 14t6 12t9.5 9.5t11.5 6.5t13 2q9 0 17 -3.5t13.5 -9.5t9 -14t3.5 -17q0 -18 -12.5 -31t-30 -13z" />
    <glyph glyph-name="uniE603" unicode="&#xe603;" 
d="M511 869q110 0 188 -77.5t78 -188t-78 -188.5t-188 -78t-188 78t-78 188q0 37 9.5 71.5t26.5 63.5t42 53.5t54 41.5t63.5 26.5t70.5 9.5zM68 -99q0 122 67.5 223.5t178.5 153.5q37 -41 88 -64.5t109 -23.5t109 23.5t88 64.5q111 -52 178.5 -153.5t67.5 -223.5h-886z" />
    <glyph glyph-name="uniE604" unicode="&#xe604;" 
d="M729 770q-128 0 -217 -119q-43 58 -97 88.5t-120 30.5q-60 0 -114.5 -25t-94 -68t-63 -102.5t-23.5 -124.5q0 -38 7 -72t22.5 -66.5t26 -51t30.5 -49.5q17 -28 41.5 -58t50.5 -57.5t54.5 -54.5t57 -51.5t54 -46t49.5 -40t40 -30.5t29 -21l12 -9q8 -7 18 -10t20 -3
q21 0 38 13l12 9q13 9 29 21t40 30.5t49.5 40t54 46t56.5 51.5t54.5 54.5t50.5 57.5t42 58q20 31 30.5 49.5t26 51t22.5 66.5t7 72q0 87 -39.5 160.5t-107.5 116.5t-148 43v0zM891 251q-90 -140 -331 -322q-47 -36 -49 -36q-11 8 -30 22t-71.5 55.5t-98.5 82.5t-98 96
t-82 102q-8 12 -13 20.5t-12 20.5t-12 21t-10.5 21t-9.5 22t-7.5 22.5t-6 24t-3.5 24.5t-1 26q0 106 68.5 180.5t165.5 74.5q70 0 121 -41t80 -111v1q2 -7 7.5 -11.5t12.5 -4.5q3 0 5.5 0.5t5 2t4.5 3.5t3 4.5t2 5.5q29 69 80.5 110t120.5 41q97 0 166 -74.5t69 -180.5
q0 -54 -19 -98.5t-57 -103.5v0z" />
    <glyph glyph-name="uniE605" unicode="&#xe605;" 
d="M917 -46q21 0 35.5 15t14.5 36v758q0 21 -14.5 36t-35.5 15h-810q-21 0 -35.5 -15t-14.5 -36v-758q0 -21 14.5 -36t35.5 -15h810zM917 -97h-810q-42 0 -71.5 30t-29.5 72v758q0 42 29.5 72t71.5 30h810q42 0 71.5 -30t29.5 -72v-758q0 -42 -29.5 -72t-71.5 -30v0z
M372 644v69h262v-69h-262zM307 470v35h458v-35h-458zM208 470v35h33v-35h-33zM307 332v35h458v-35h-458zM208 331v35h33v-35h-33zM307 193v35h458v-35h-458zM208 194v34h33v-34h-33zM307 55v34h458v-34h-458zM208 55v34h33v-34h-33z" />
    <glyph glyph-name="uniE606" unicode="&#xe606;" 
d="M537 -50q89 0 169 34.5t138.5 92.5t92.5 138.5t34 168.5t-34 168.5t-92.5 138.5t-138.5 92.5t-169 34.5h-50q-59 0 -115.5 -15.5t-104 -43.5t-87.5 -68.5t-68 -88t-43.5 -103.5t-15.5 -115q0 -71 21.5 -137t62 -119.5t94 -93.5t119.5 -62t137 -22h50zM537 -101h-50
q-99 0 -189 38.5t-155 103.5t-103 154.5t-38 188.5q0 66 17 129t48.5 116t76 98t98 76t116.5 48.5t129 17.5h50q99 0 189 -38.5t155 -103.5t103 -154.5t38 -188.5t-38 -188.5t-103 -154.5t-155 -103.5t-189 -38.5v0zM481 222v156h210v-15h45v273h-301v-398q0 -24 -17 -40
l34 -45q17 12 34 21q58 28 115 49q-3 24 -3 48q-35 -15 -64 -27.5t-53 -21.5v0zM336 193v256h-118v-44h71v-202q-23 -22 -76 -73l24 -50q47 58 72 81q42 -69 143 -70q164 -4 340 -3q10 26 17 47q-90 -2 -177.5 -2.5t-172.5 0.5q-86 2 -123 60v0zM638 303q-36 22 -90 54
l-25 -33q134 -84 232 -156l30 42q-44 29 -107 68q5 3 10.5 5t11 4.5t11.5 4.5t11 4l12 6q5 2 10.5 4t11.5 4.5t11.5 4.5t11.5 4.5t12 4.5l-31 42q-63 -35 -122 -63v0zM691 527h-210v68h210v-68zM481 419v68h210v-68h-210zM249 624q31 -41 80 -117l42 30q-53 76 -83 113z" />
    <glyph glyph-name="uniE607" unicode="&#xe607;" 
d="M922 -51q21 0 36 15t15 36v768q0 21 -15 36t-36 15h-820q-6 0 -11.5 -1.5t-10.5 -4t-9.5 -6t-8 -7.5t-6 -9.5t-4 -11t-1.5 -11.5v-768q0 -21 15 -36t36 -15h820zM922 -102h-820q-42 0 -72 30t-30 72v768q0 42 30 72t72 30h820q42 0 72 -30t30 -72v-768q0 -28 -13.5 -51.5
t-37.5 -37t-51 -13.5v0zM375 123q142 0 154 212q3 43 -18 82t-60 63l-24 15v28q0 122 -69 122q-17 0 -29.5 -8.5t-19.5 -21t-11.5 -30t-6 -32t-1.5 -30.5v-28l-23 -15q-16 -10 -28.5 -22.5t-22 -26.5t-16 -30t-10 -33t-2.5 -35q5 -210 187 -210zM375 71q-48 0 -88.5 14
t-74.5 43.5t-54 81.5t-21 122q-2 59 26 109.5t76 81.5q0 77 29.5 125.5t90 48.5t90 -48.5t29.5 -125.5q49 -31 77.5 -81.5t24.5 -109.5q-12 -207 -138 -250q-31 -11 -67 -11v0zM874 315h-191v34h191v-34v0zM922 453h-239v35h239v-35v0zM874 592h-191v35h191v-35v0z" />
    <glyph glyph-name="uniE608" unicode="&#xe608;" 
d="M513 139l72 95l10 13l15 5q62 20 110 61t74 97t26 119q0 120 -90 205.5t-216.5 85.5t-216.5 -85.5t-90 -205.5q0 -95 57.5 -171t151.5 -106l16 -5l10 -13zM513 54l-112 149q-108 35 -176.5 124t-68.5 202q0 93 48 172t130 124.5t179 45.5t179.5 -45.5t130.5 -124.5
t48 -172q0 -113 -68.5 -202t-176.5 -124l-113 -149v0zM922 463v51q42 0 72 -30t30 -72v-409q0 -27 -13.5 -50.5t-37 -37.5t-51.5 -14h-817q-42 0 -72 30t-30 72v409q0 42 30 72t72 30v-51q-21 0 -36 -15t-15 -36v-409q0 -21 15 -36t36 -15h817q21 0 36 15t15 36v409
q0 21 -15 36t-36 15zM513 370q46 0 84.5 21t61 57.5t22.5 79.5t-22.5 79t-61 57.5t-84 21.5t-84 -21.5t-61 -57.5t-22.5 -79q0 -65 49 -111.5t118 -46.5zM513 319q-90 0 -154.5 61t-64.5 147.5t64.5 148t154.5 61.5q36 0 69.5 -10.5t60.5 -30t47 -45t31 -57.5t11 -66
q0 -57 -29 -105t-79.5 -76t-110.5 -28v0zM105 514h40h24v-51h-64q0 2 -0.5 4.5t-0.5 5.5v5v6v5v12q0 6 1 13zM922 463h-38q-37 0 -30 2q5 1 8 13.5t3 23.5v12h57v-51z" />
    <glyph glyph-name="uniE609" unicode="&#xe609;" 
d="M307 26h-51v51q0 10 7.5 17.5t18.5 7.5q7 0 12.5 -3t9 -9t3.5 -13v-51v0zM282 666q-11 0 -18.5 7.5t-7.5 17.5v0v51v0v0v0h51v-51q0 -5 -2 -9.5t-5.5 -8t-8 -5.5t-9.5 -2v0zM282 410q-7 0 -13 3t-9.5 9t-3.5 13v51v103q0 7 3.5 13t9.5 9t13 3q10 0 17.5 -7.5t7.5 -17.5
v-154q0 -10 -7.5 -17.5t-17.5 -7.5v0zM282 154q-11 0 -18.5 7.5t-7.5 17.5v51v103q0 10 7.5 17.5t18 7.5t18 -7.5t7.5 -17.5v-154q0 -10 -7.5 -17.5t-17.5 -7.5v0zM973 26v184q-26 18 -45 45t-29.5 60.5t-10.5 68.5t10.5 68.5t29.5 60.5t45 45v184h-922v-184
q39 -28 62 -74.5t23 -99.5t-23 -99.5t-62 -74.5v-184h922zM1024 -26h-1024v265q15 7 28 17.5t23.5 24t18 30t11.5 35t4 38.5q0 49 -23.5 88.5t-61.5 56.5v265h1024v-265q-38 -16 -61.5 -56t-23.5 -89q0 -25 6.5 -48t17.5 -41.5t27 -33t34 -22.5v-265v0zM710 580l-70 -130
q-29 -54 -35 -70h-1q-18 41 -105 200h-66l123 -212h-101v-47h118v-64h-118v-48h118v-94h59v94h114v48h-114v64h114v47h-98l125 212h-63z" />
    <glyph glyph-name="uniE60A" unicode="&#xe60a;" horiz-adv-x="1025" 
d="M258 -17l233 109l21 10l22 -10l232 -109l-31 255l-3 23l16 18l175 187l-252 48l-23 5l-12 21l-124 224l-124 -224l-11 -21l-24 -5l-252 -48l176 -187l16 -18l-3 -23zM829 -102l-317 148l-316 -148l43 346l-238 255l343 66l168 305l169 -305l343 -66l-239 -255l44 -346v0z
" />
    <glyph glyph-name="uniE60B" unicode="&#xe60b;" 
d="M325 525l-26 -44q-36 22 -71 49t-48.5 39t-18.5 17l35 37q2 -2 16.5 -15t47 -38t65.5 -45zM212 586h-51v274h51v-274zM175 819v51h674v-51h-674zM812 860h51v-274h-51v274zM825 621l38 -35q-5 -6 -17.5 -18.5t-46.5 -41t-69 -51.5l-27 43q14 10 29 20.5t26.5 20t22.5 19
t18.5 17t14 13.5t9 9t2.5 4zM212 586h-51h51v0zM161 586l35 37l-35 -37v0zM175 819v41h37q0 -8 -3 -15.5t-8 -13t-12 -9t-14 -3.5v0zM175 860h-14q0 10 14 10v-10v0zM849 819q-10 0 -18.5 5.5t-13.5 15t-5 20.5h37v-41v0zM863 860h-14v10q4 0 7.5 -1t5 -3.5t1.5 -5.5v0z
M863 586h-51h51l-38 35l38 -35v0v0v0zM512 -51q83 0 154 39.5t112 107.5t41 148q0 121 -90 207.5t-217 86.5t-217 -86.5t-90 -208t90 -208t217 -86.5zM512 -102q-97 0 -179.5 46t-130.5 126t-48 174q0 56 18 109t51 95.5t77 74.5t99 49.5t113 17.5q97 0 179.5 -46.5
t130.5 -126t48 -173.5q0 -47 -12.5 -92t-36 -83t-56.5 -70t-72 -54.5t-85.5 -34.5t-95.5 -12v0zM713 150l46 -23q-22 -44 -58 -77t-83.5 -51.5t-100.5 -18.5q-111 0 -189.5 75.5t-78.5 183t78.5 183t189.5 75.5q72 0 133 -34t97 -91l-44 -27q-29 47 -78.5 74t-107.5 27
t-108 -28t-79 -75.5t-29 -104.5q0 -85 63.5 -146t152.5 -61q63 0 116 32.5t80 86.5z" />
    <glyph glyph-name="uniE60C" unicode="&#xe60c;" horiz-adv-x="1025" 
d="M910 -71q24 0 40.5 16.5t16.5 40.5v455q0 23 -16.5 40t-40.5 17h-796q-16 0 -29 -7.5t-20.5 -21t-7.5 -28.5v-455q0 -24 16.5 -40.5t40.5 -16.5h796zM910 -128h-796q-47 0 -80.5 33.5t-33.5 80.5v455q0 47 33.5 80.5t80.5 33.5h796q47 0 80.5 -33.5t33.5 -80.5v-455
q0 -23 -9 -44t-24 -36.5t-36.5 -24.5t-44.5 -9v0zM230 521l-57 -7q-2 21 -2 41q0 92 45.5 171t124 124.5t171.5 45.5t171.5 -45.5t124 -124.5t45.5 -171v-15q0 -7 -1 -14l-57 5q1 6 1 11v13q0 117 -83 200.5t-201 83.5q-77 0 -142.5 -38t-103.5 -103.5t-38 -142.5v-4v-4v-4
v-3v-4q0 -2 0.5 -4t0.5 -4v-4q0 -2 1 -3z" />
    <glyph glyph-name="uniE60D" unicode="&#xe60d;" 
d="M711 600v99q0 21 -14.5 35.5t-34.5 14.5h-298q-10 0 -19.5 -4t-16 -10.5t-10.5 -16t-4 -19.5v-99h-248v-50h99v-646q0 -20 14.5 -34.5t35.5 -14.5h596q20 0 35 14.5t15 34.5v646h99v50h-249zM662 699v-99h-298v99h298zM811 -96h-596v646h596v-646zM662 451h49v-398h-49
v398zM538 53v398h-25h-25v-398h25h25zM314 451h50v-398h-50v398z" />
    <glyph glyph-name="uniE60E" unicode="&#xe60e;" 
d="M998 -23v764h-896v-764h896zM1024 -48h-947v814h947v-814v0zM998 -23v764h-896v-764h896zM1024 -48h-947v814h947v-814v0zM0 817v-814h947v814h-947zM277 593h105v40h33v-40h100v40h32v-40h108v-30h-108v-40h-32v40h-100v-40h-33v40h-105v30zM271 511h389v-79h-34v48
h-321v-48h-34v79zM650 238q-105 43 -169 123v-139h-33v139q-63 -77 -170 -128q-10 12 -25 29q106 40 172 115h-147v30h170v55h33v-55h172v-30h-152q68 -78 176 -107q-9 -9 -15.5 -17t-11.5 -15z" />
    <glyph glyph-name="uniE60F" unicode="&#xe60f;" 
d="M998 -23v764h-896v-764h896zM1024 -48h-947v814h947v-814v0zM998 -23v764h-896v-764h896zM1024 -48h-947v814h947v-814v0zM427 357h177v-72h-177v72zM0 817v-814h947v814h-947zM330 230h-32v243q-6 -11 -13 -22t-14 -21l-14 -20q-7 18 -14 35q62 93 94 206l33 -10
q-18 -57 -40 -105v-306zM637 230h-33v26h-177v-26h-33v156h243v-156zM641 426h-252v29h252v-29zM641 495h-252v29h252v-29zM666 563h-300v30h139q-3 5 -5.5 9t-5.5 8l-4 10l-6 8t-6 9l29 15q15 -23 30 -49l-18 -10h147v-30z" />
    <glyph glyph-name="uniE610" unicode="&#xe610;" 
d="M998 -23v764h-896v-764h896zM1024 -48h-947v814h947v-814v0zM998 -23v764h-896v-764h896zM1024 -48h-947v814h947v-814v0zM0 817v-814h947v814h-947zM287 572h188q-10 19 -27 43l30 17q13 -18 33 -48l-23 -12h176v-73h-33v43h-311v-43h-33v73zM359 500l16 24
q48 -23 86 -46l-18 -28q-19 12 -40 24.5t-44 25.5zM427 417l-18 -29q-41 25 -87 47l16 26q47 -21 89 -44zM674 346h-167q-1 -3 -2 -5t-2.5 -4.5t-2.5 -4.5q87 -37 172 -77l-18 -31q-88 45 -174 83q-56 -54 -187 -84q-10 18 -20 33q152 28 195 90h-188v30h203q14 43 13 149
h34q0 -106 -11 -149h155v-30z" />
    <glyph glyph-name="uniE611" unicode="&#xe611;" 
d="M998 -23v764h-896v-764h896zM1024 -48h-947v814h947v-814v0zM998 -23v764h-896v-764h896zM1024 -48h-947v814h947v-814v0zM540 433q12 -59 45 -101q34 43 48 101h-93zM340 581h58v-79h-58v79zM340 477h58v-79h-58v79zM0 817v-814h947v814h-947zM427 275q0 -41 -38 -41
q-11 0 -20.5 0.5t-18.5 0.5q-1 6 -2 13.5t-3 15.5q5 -1 10 -1.5t9.5 -1t8.5 -0.5h8q17 0 17 17v94h-58q2 -94 -34 -144q-3 4 -6.5 8t-7.5 7.5t-8 7.5q27 42 27 120v237h116v-333zM669 228q-50 24 -85 59q-31 -31 -74 -55q-2 5 -5 10l-6 8q-3 5 -6 9q41 21 71 50
q-40 52 -52 124h-20v-204h-31v377h203q-2 -34 -4 -52q-3 -64 -64 -63q-17 1 -53 2q-1 2 -1 4.5t-0.5 4.5t-1.5 4v6q-1 2 -1 4t-0.5 4.5t-1.5 4.5q10 -1 19.5 -2t18.5 -1.5t17 -0.5q35 -1 38 33l2 24h-140v-118h173v-25q-16 -72 -60 -125q36 -34 88 -52q-7 -8 -13 -15.5
t-11 -14.5z" />
    <glyph glyph-name="uniE612" unicode="&#xe612;" 
d="M998 -23v764h-896v-764h896zM1024 -48h-947v814h947v-814v0zM998 -23v764h-896v-764h896zM1024 -48h-947v814h947v-814v0zM0 817v-814h947v814h-947zM690 254h-408v32h67v220h35v-220h104v279h-187v32h373v-32h-151v-108h137v-31h-137v-140h167v-32z" />
    <glyph glyph-name="uniE613" unicode="&#xe613;" 
d="M996 681q-77 -65 -150 -139t-151 -162v-387q0 -8 -3 -15t-8.5 -12.5t-12.5 -8.5t-15 -3h-617q-16 0 -27.5 11.5t-11.5 27.5v646q0 17 11.5 28.5t27.5 11.5h617q6 0 12 -2t11 -6t8.5 -8.5t5.5 -10.5t2 -13v-36q49 52 100 100t104 94q15 13 32.5 17t32 -1t28 -15t21 -25
t10 -30.5t-4.5 -32t-22 -29.5zM655 638h-615v-644h615v341q-33 -38 -137 -160q-19 -22 -44 -27.5t-51 10.5q-21 15 -49 40.5t-52 48t-51.5 44.5t-58 35t-60.5 13q-45 1 -56 43q-10 40 18 70q20 21 50 21q24 0 46.5 -5t44 -14.5t39 -19.5t38 -26.5t34.5 -28t36.5 -31
t34.5 -29.5l10 -8l7 8q95 127 201 242v77z" />
    <glyph glyph-name="uniE615" unicode="&#xe615;" 
d="M867 435q-8 52 -29.5 98.5t-54.5 85.5l-39 -34q59 -68 72 -157zM602 90q-43 -13 -90 -13q-127 0 -217 90t-90 217q0 115 75 202l26 -101l154 259l-306 -36l101 -74l-7 -7q-45 -49 -69.5 -111.5t-24.5 -131.5q0 -97 48 -179.5t130.5 -130.5t179.5 -48q54 0 105 15
q24 8 46 18t43 23l-28 43q-36 -22 -76 -35zM744 183l39 -34q16 19 30 40.5t24.5 44.5t18 48t11.5 51l-51 7q-3 -22 -9 -43t-15.5 -41t-21 -38.5t-26.5 -34.5zM512 742v-51q11 0 22 -0.5t21 -2.5q14 -2 26.5 -5t25 -7t25 -9t24 -11t22.5 -14l28 43q-66 43 -143 54
q-26 3 -51 3z" />
    <glyph glyph-name="uniE616" unicode="&#xe616;" 
d="M724 -62h-424q-15 0 -28.5 5.5t-23.5 15.5t-15.5 23.5t-5.5 28.5v746q0 20 9.5 37t26.5 26.5t37 9.5h424q20 0 37 -9.5t26.5 -26.5t9.5 -37v-746q0 -31 -21 -52t-52 -21zM505 -18q24 0 41 17t17 41t-17 41.5t-41 17.5q-12 0 -23 -5t-19 -12.5t-12.5 -18.5t-4.5 -23
q0 -24 17.5 -41t41.5 -17zM563 786h-102q-7 0 -11 -4t-4 -10q0 -15 15 -15h102q7 0 11 4t4 11q0 4 -2 7.5t-5 5t-8 1.5zM768 699q0 12 -8.5 20.5t-20.5 8.5h-454q-12 0 -20.5 -8.5t-8.5 -20.5v-542q0 -8 4 -14.5t10.5 -10.5t14.5 -4h454q12 0 20.5 8.5t8.5 20.5v542z" />
    <glyph glyph-name="uniE617" unicode="&#xe617;" 
d="M767 419h-68q0 54 -25 98.5t-68.5 69.5t-96 25t-96 -25t-68.5 -69.5t-25 -98.5h-68q0 49 20.5 96.5t54.5 83.5t82.5 58.5t100 22.5t100 -22.5t82.5 -58.5t54.5 -83.5t20.5 -96.5zM807 308q0 28 -19.5 48t-48.5 20h-453q-29 0 -48.5 -20t-19.5 -48v-323q0 -18 9 -34
t24.5 -25t34.5 -9h453q14 0 26.5 5.5t22 14.5t14.5 21.5t5 26.5v323zM567 55q0 -13 -7 -25t-18.5 -19t-25.5 -7h-7q-21 0 -36 15t-15 36v139q0 10 4 19.5t11 16.5t16.5 11t19.5 4h7q14 0 25.5 -7t18.5 -18.5t7 -25.5v-139zM567 55z" />
    <glyph glyph-name="uniE618" unicode="&#xe618;" 
d="M78 523h-62v249q0 51 36 87.5t88 36.5h220v-62h-220q-13 0 -24.5 -5t-20 -13.5t-13 -20t-4.5 -23.5v-249zM635 834v62h249q26 0 49 -10t39.5 -26.5t26 -39.5t9.5 -48v-247h-62v247q0 26 -18 44t-44 18h-249zM946 244h62v-248q0 -51 -36 -87.5t-88 -36.5h-249v62h249
q26 0 44 18t18 44v248zM360 -66v-62h-220q-52 0 -88 36.5t-36 87.5v248h62v-248q0 -26 18 -44t44 -18h220zM387 151l151 233l-151 233h66l151 -233l-151 -233h-66z" />
    <glyph glyph-name="uniE619" unicode="&#xe619;" 
d="M78 772q0 26 18.5 44t43.5 18h220v62h-220q-51 0 -87.5 -36.5t-36.5 -87.5v-249h62v249zM78 -3v248h-62v-248q0 -52 36.5 -88t87.5 -36h220v62h-220q-25 0 -43.5 18t-18.5 44zM947 -3q0 -17 -8.5 -31.5t-23 -22.5t-30.5 -8h-249v-62h249q51 0 87.5 36t36.5 88v248h-62
v-248zM885 896h-249v-62h249q25 0 43.5 -18t18.5 -44v-247h62v247q0 64 -53 102q-33 22 -71 22zM579 617h-67l152 -233l-152 -232h67l151 232zM362 617h-67l151 -233l-151 -232h67l151 232z" />
    <glyph glyph-name="uniE61A" unicode="&#xe61a;" 
d="M78 772q0 26 18.5 44t43.5 18h220v62h-220q-51 0 -87.5 -36.5t-36.5 -87.5v-249h62v249zM78 -3v248h-62v-248q0 -52 36.5 -88t87.5 -36h220v62h-220q-25 0 -43.5 18t-18.5 44zM947 -3q0 -17 -8.5 -31.5t-23 -22.5t-30.5 -8h-249v-62h249q51 0 87.5 36t36.5 88v248h-62
v-248zM885 896h-249v-62h249q25 0 43.5 -18t18.5 -44v-247h62v247q0 64 -53 102q-33 22 -71 22zM671 616h-66l151 -232l-151 -232h66l151 232zM470 616h-67l151 -232l-151 -232h67l151 232zM276 616h-66l151 -232l-151 -232h66l151 232z" />
    <glyph glyph-name="uniE61B" unicode="&#xe61b;" 
d="M998 -23v763h-896v-763h896zM1024 -49h-947v815h947v-815v0zM1024 -49zM998 -23v763h-896v-763h896zM1024 -49h-947v815h947v-815v0zM1024 -49zM0 817v-815h947v815h-947zM673 461h-280q-16 -39 -28 -63h256v-25l-117 -106q17 -8 50 -25q5 -2 10.5 -4.5t6.5 -3.5l-14 -21
q-101 52 -222 108l13 20q57 -26 132 -63l110 98h-251v24q14 28 28 61h-110v22h120q8 19 22 56q3 8 5 12h-121v22h129q3 9 6.5 18t7 20t7.5 23l24 -4q-5 -14 -15 -44q-2 -4 -3 -7l-2 -6h208v-22h-216q-3 -6 -7 -18q-12 -33 -19 -50h270v-22z" />
    <glyph glyph-name="uniE61C" unicode="&#xe61c;" horiz-adv-x="1025" 
d="M512 871l169 -306l343 -66l-239 -255l44 -347l-317 149l-316 -149l43 347l-239 255l343 66z" />
    <glyph glyph-name="uniE61D" unicode="&#xe61d;" 
d="M183 -128l514 512l-514 512h144l514 -512l-514 -512h-144z" />
    <glyph glyph-name="uniE61E" unicode="&#xe61e;" 
d="M0 734h162v-161h-162v161zM377 734h647v-161h-647v161zM0 465h162v-162h-162v162zM377 465h647v-162h-647v162zM0 195h162v-161h-162v161zM377 195h647v-161h-647v161z" />
    <glyph glyph-name="uniE61F" unicode="&#xe61f;" 
d="M511 -35q112 0 208 56t152 152.5t56 210.5q0 68 -21.5 132t-60 115.5t-89.5 90.5t-114.5 60t-130.5 21q-113 0 -209 -56t-151.5 -152.5t-55.5 -210.5q0 -161 107 -281q105 -117 259 -135q25 -3 50 -3zM511 -128q-104 0 -198.5 40.5t-162.5 109t-108.5 163.5t-40.5 199
t40.5 199t108.5 163.5t162.5 109t198 40.5t198 -40.5t162.5 -109t108.5 -163.5t40.5 -199t-40.5 -199t-108.5 -163.5t-162.5 -109t-197.5 -40.5v0zM198 8l-62 62l676 681l62 -62zM813 -11l-676 680l62 62l675 -680z" />
    <glyph glyph-name="uniE620" unicode="&#xe620;" 
d="M792 604l-247 258l-33 34l-33 -34l-247 -258l34 -34l246 257l246 -257zM232 164l247 -258l33 -34l33 34l247 258l-34 34l-246 -257l-246 257z" />
    <glyph glyph-name="uniE621" unicode="&#xe621;" 
d="M510.5 -142q-131.5 0 -224.5 91.5t-93 220.5q0 150 120 333q10 -47 27.5 -83t42.5 -56.5t53 -20.5q54 0 92 71.5t38 171.5q0 97 -36 168q9 -8 21 -20t43 -46t59 -70t61 -90t57 -107.5t40.5 -120t16.5 -130.5q0 -129 -93 -220.5t-224.5 -91.5zM675 306q-1 -12 -7 -30.5
t-20 -42.5t-32.5 -44.5t-47.5 -34.5t-62 -14q-114 0 -126 -83q-3 -15 3.5 -35t20.5 -40.5t42.5 -35t66.5 -14.5q42 0 73.5 20.5t48 53.5t27.5 73t13.5 80t2.5 73t-1 53z" />
    <glyph glyph-name="uniE622" unicode="&#xe622;" 
d="M512 896q-83 0 -161.5 -26t-141.5 -73t-110 -110t-73 -141.5t-26 -161.5t26 -161.5t73 -141.5t110 -110t141.5 -73t161.5 -26q104 0 199 40.5t163.5 109t109 163.5t40.5 199q0 83 -26 161.5t-73 141.5t-110 110t-141.5 73t-161.5 26zM729 215l-48 -48l-169 169l-169 -169
l-48 48l169 169l-169 169l48 48l169 -169l169 169l48 -48l-169 -169z" />
    <glyph glyph-name="uniE623" unicode="&#xe623;" 
d="M443 -124q-108 137 -227 237t-211 134l283 176l138 -273q4 11 13 31.5t39 82t63.5 120t85.5 136.5t106.5 143t125.5 127.5t143 99.5q-2 -29 -8 -86q-15 -132 -4 -202q8 -51 29 -100q-55 -12 -140 -84.5t-168 -169t-156 -197.5t-112 -175v0z" />
    <glyph glyph-name="uniE624" unicode="&#xe624;" 
d="M271 68l-269 274l107 109l269 -273zM378 -41l-107 109l645 657l108 -109z" />
    <glyph glyph-name="uniE625" unicode="&#xe625;" horiz-adv-x="1026" 
d="M686 545l-3 51h6q39 0 72 -28t52.5 -76t19.5 -105q0 -42 -11.5 -81t-30.5 -67t-46 -44.5t-56 -16.5v52q35 0 64 45.5t29 112t-29 112t-64 45.5h-3zM793 663l-3 51h9q62 0 114 -44t82 -120t30 -165q0 -67 -18 -128.5t-48 -105.5t-72 -70t-88 -26v51q71 0 123 82.5t52 196
t-52 196t-123 82.5h-6zM521 8v756q-32 -18 -99.5 -76.5t-132.5 -122.5l-15 -14h-21h-201v-334h195h26l13 -11zM526 -52q-12 0 -27 11l-252 207h-213q-3 1 -8.5 2.5t-15 11.5t-10.5 25v363l2 8q2 4 10.5 13t21.5 13h219q9 9 24 23.5t56 52t75.5 66.5t69 52.5t48.5 23.5h1h5
q8 0 15.5 -2.5t16 -13t8.5 -29.5v-788q0 -23 -25 -34q-8 -4 -20 -5h-1v0z" />
  </font>
</defs>
</svg>
